# xmcd
#
# Track frame offsets:
#	150
#	19508
#	41666
#	68712
#	94705
#	117628
#	142258
#	162665
#	189110
#	216556
#	239242
#	269167
#
# Disc length: 3920 seconds
#
# Revision: 3
# Processed by: cddbd v1.5.2PL0 Copyright (c) Steve Scherf et al.
# Submitted via: EZCDAudioConverter 8.0.2.1
#
DISCID=c10f4e0c
DTITLE=Mộng Thi - Áo Cưới Màu Hoa Cà
DYEAR=2000
DGENRE=
TTITLE0=Mộng Thi - Nét buồn thời chiến
TTITLE1=Mộng Thi - Áo Cưới Màu Hoa Cà
TTITLE2=Mộng Thi - Tám điệp khúc
TTITLE3=Mộng Thi - Nếu em là giai nhân
TTITLE4=Mộng Thi - Chuyến đò vĩ tuyến
TTITLE5=Mộng Thi - Vùng trời ngày đó
TTITLE6=Mộng Thi - Sao không thấy anh về
TTITLE7=Mộng Thi - Hai kỷ niệm một chuyến đi
TTITLE8=Mộng Thi - Cho người vào cuộc chiến
TTITLE9=Mộng Thi - Để trả lời một câu hỏi
TTITLE10=Soundtrack - Ai về sông Tương
TTITLE11=Soundtrack - Trách người đi
EXTD=
EXTT0=
EXTT1=
EXTT2=
EXTT3=
EXTT4=
EXTT5=
EXTT6=
EXTT7=
EXTT8=
EXTT9=
EXTT10=
EXTT11=
PLAYORDER=
